<?xml version="1.0" encoding="UTF-8" standalone="no"?>
<!-- Created with Inkscape (http://www.inkscape.org/) -->
<svg xmlns:dc="http://purl.org/dc/elements/1.1/" xmlns:cc="http://creativecommons.org/ns#" xmlns:rdf="http://www.w3.org/1999/02/22-rdf-syntax-ns#" xmlns:svg="http://www.w3.org/2000/svg" xmlns="http://www.w3.org/2000/svg" version="1.1" width="574" height="324" id="svg3011">
  <defs id="defs3013"/>
  <metadata id="metadata3017">
    <rdf:RDF>
      <cc:Work rdf:about="">
        <dc:format>image/svg+xml</dc:format>
        <dc:type rdf:resource="http://purl.org/dc/dcmitype/StillImage"/>
        <dc:title/>
      </cc:Work>
    </rdf:RDF>
  </metadata>
  <g transform="translate(-28.65946,-23.460179)" id="layer1"/>
  <g transform="matrix(1.4081815,0,0,1.0508451,5.64743,4.8364831)" id="g3457">
    <rect width="400" height="300" x="0" y="0" id="rect3515" style="fill:#729fcf;stroke:#000000;stroke-width:3"/>
    <g id="g3459">
      <path d="m 100,0 0,300" id="path3461" style="fill:none;stroke:#000000;stroke-width:2"/>
      <path d="m 200,0 0,300" id="path3463" style="fill:none;stroke:#000000;stroke-width:2"/>
      <path d="m 300,0 0,300" id="path3465" style="fill:none;stroke:#000000;stroke-width:2"/>
    </g>
    <g id="g3467">
      <path d="m 0,100 400,0" id="path3469" style="fill:none;stroke:#000000;stroke-width:2"/>
      <path d="m 0,200 400,0" id="path3471" style="fill:none;stroke:#000000;stroke-width:2"/>
    </g>
    <g id="g3473">
      <path d="m 50,0 0,300" id="path3475" style="fill:none;stroke:#000000;stroke-width:1"/>
      <path d="m 150,0 0,300" id="path3477" style="fill:none;stroke:#000000;stroke-width:1"/>
      <path d="m 250,0 0,300" id="path3479" style="fill:none;stroke:#000000;stroke-width:1"/>
      <path d="m 350,0 0,300" id="path3481" style="fill:none;stroke:#000000;stroke-width:1"/>
    </g>
    <g id="g3483">
      <path d="m 25,0 0,300" id="path3485" style="fill:none;stroke:#000000;stroke-width:0.30000001"/>
      <path d="m 75,0 0,300" id="path3487" style="fill:none;stroke:#000000;stroke-width:0.30000001"/>
      <path d="m 125,0 0,300" id="path3489" style="fill:none;stroke:#000000;stroke-width:0.30000001"/>
      <path d="m 175,0 0,300" id="path3491" style="fill:none;stroke:#000000;stroke-width:0.30000001"/>
      <path d="m 225,0 0,300" id="path3493" style="fill:none;stroke:#000000;stroke-width:0.30000001"/>
      <path d="m 275,0 0,300" id="path3495" style="fill:none;stroke:#000000;stroke-width:0.30000001"/>
      <path d="m 325,0 0,300" id="path3497" style="fill:none;stroke:#000000;stroke-width:0.30000001"/>
      <path d="m 375,0 0,300" id="path3499" style="fill:none;stroke:#000000;stroke-width:0.30000001"/>
    </g>
    <g id="g3501">
      <path d="m 0,33.333333 400,0" id="path3503" style="fill:none;stroke:#000000;stroke-width:1"/>
      <path d="m 0,66.666667 400,0" id="path3505" style="fill:none;stroke:#000000;stroke-width:1"/>
      <path d="m 0,133.33333 400,0" id="path3507" style="fill:none;stroke:#000000;stroke-width:1"/>
      <path d="m 0,166.66667 400,0" id="path3509" style="fill:none;stroke:#000000;stroke-width:1"/>
      <path d="m 0,233.33333 400,0" id="path3511" style="fill:none;stroke:#000000;stroke-width:1"/>
      <path d="m 0,266.66667 400,0" id="path3513" style="fill:none;stroke:#000000;stroke-width:1"/>
    </g>
  </g>
</svg>